<?xml version="1.0" encoding="utf-8" standalone="no"?>
<!DOCTYPE svg PUBLIC "-//W3C//DTD SVG 1.1//EN"
  "http://www.w3.org/Graphics/SVG/1.1/DTD/svg11.dtd">
<!-- Created with matplotlib (http://matplotlib.sourceforge.net/) -->
<svg height="689pt" version="1.1" viewBox="0 0 1152 689" width="1152pt" xmlns="http://www.w3.org/2000/svg" xmlns:xlink="http://www.w3.org/1999/xlink">
 <defs>
  <style type="text/css">
*{stroke-linecap:square;stroke-linejoin:round;}
  </style>
 </defs>
 <g id="figure_1">
  <g id="patch_1">
   <path d="
M0 689.4
L1152 689.4
L1152 0
L0 0
z
" style="fill:#ffffff;"/>
  </g>
  <g id="axes_1">
   <g id="patch_2">
    <path d="
M144 620.46
L1036.8 620.46
L1036.8 68.94
L144 68.94
z
" style="fill:#ffffff;"/>
   </g>
   <g id="patch_3">
    <path clip-path="url(#p839c0b4ab8)" d="
M144.315 577.535
L145.156 544.495
L146.838 534.139
L150.201 499.05
L156.927 472.18
L170.379 463.859
L197.284 461.462
L251.094 437.534
L358.713 422.913
L573.952 413.12
L1004.43 388.908
L1004.43 388.908
L573.952 413.12
L358.713 422.913
L251.094 437.534
L197.284 461.462
L170.379 463.859
L156.927 472.18
L150.201 499.05
L146.838 534.139
L145.156 544.495
z
" style="fill:#0000ff;opacity:0.4;stroke:#000000;"/>
   </g>
   <g id="patch_4">
    <path clip-path="url(#p839c0b4ab8)" d="
M144.315 589.15
L145.156 558.746
L146.838 544.287
L150.201 500.899
L156.927 459.577
L170.379 424.316
L197.284 375.008
L251.094 315.372
L358.713 245.91
L573.952 162.847
L1004.43 73.49
L1004.43 73.49
L573.952 162.847
L358.713 245.91
L251.094 315.372
L197.284 375.008
L170.379 424.316
L156.927 459.577
L150.201 500.899
L146.838 544.287
L145.156 558.746
z
" style="fill:#008000;opacity:0.4;stroke:#000000;"/>
   </g>
   <g id="patch_5">
    <path clip-path="url(#p839c0b4ab8)" d="
M144.315 596.575
L145.156 578.189
L146.838 563.526
L150.201 521.97
L156.927 495.921
L170.379 461.22
L197.284 423.573
L251.094 371.3
L358.713 313.783
L573.952 233.541
L1004.43 133.914
L1004.43 133.914
L573.952 233.541
L358.713 313.783
L251.094 371.3
L197.284 423.573
L170.379 461.22
L156.927 495.921
L150.201 521.97
L146.838 563.526
L145.156 578.189
z
" style="fill:#ff0000;opacity:0.4;stroke:#000000;"/>
   </g>
   <g id="patch_6">
    <path clip-path="url(#p839c0b4ab8)" d="
M144.315 598.399
L145.156 585.697
L146.838 574.037
L150.201 542.681
L156.927 502.722
L170.379 483.816
L197.284 451.001
L251.094 404.599
L358.713 358.274
L573.952 293.463
L1004.43 221.575
L1004.43 221.575
L573.952 293.463
L358.713 358.274
L251.094 404.599
L197.284 451.001
L170.379 483.816
L156.927 502.722
L150.201 542.681
L146.838 574.037
L145.156 585.697
z
" style="fill:#00bfbf;opacity:0.4;stroke:#000000;"/>
   </g>
   <g id="patch_7">
    <path clip-path="url(#p839c0b4ab8)" d="
M144.315 598.399
L145.156 592.8
L146.838 581.457
L150.201 551.47
L156.927 520.257
L170.379 494.819
L197.284 459.152
L251.094 420.423
L358.713 382.311
L573.952 323.784
L1004.43 258.736
L1004.43 258.736
L573.952 323.784
L358.713 382.311
L251.094 420.423
L197.284 459.152
L170.379 494.819
L156.927 520.257
L150.201 551.47
L146.838 581.457
L145.156 592.8
z
" style="fill:#bf00bf;opacity:0.4;stroke:#000000;"/>
   </g>
   <g id="patch_8">
    <path clip-path="url(#p839c0b4ab8)" d="
M144.315 598.399
L145.156 598.399
L146.838 596.944
L150.201 583.758
L156.927 557.363
L170.379 529.56
L197.284 498.574
L251.094 465.663
L358.713 429.49
L573.952 386.773
L573.952 386.773
L358.713 429.49
L251.094 465.663
L197.284 498.574
L170.379 529.56
L156.927 557.363
L150.201 583.758
L146.838 596.944
L145.156 598.399
z
" style="fill:#bfbf00;opacity:0.4;stroke:#000000;"/>
   </g>
   <g id="patch_9">
    <path clip-path="url(#p839c0b4ab8)" d="
M144.315 598.399
L145.156 598.399
L146.838 598.399
L150.201 597.177
L156.927 583.82
L170.379 561.76
L197.284 532.117
L251.094 497.388
L358.713 465.046
L573.952 421.988
L573.952 421.988
L358.713 465.046
L251.094 497.388
L197.284 532.117
L170.379 561.76
L156.927 583.82
L150.201 597.177
L146.838 598.399
L145.156 598.399
z
" style="opacity:0.4;stroke:#000000;"/>
   </g>
   <g id="line2d_1">
    <path clip-path="url(#p839c0b4ab8)" d="
M147.911 522.599
L152.401 507.178
L156.89 498.19
L161.379 491.822
L165.869 486.886
L170.358 482.855
L174.847 479.448
L179.337 476.498
L183.826 473.896
L188.315 471.569
L192.805 469.464
L197.294 467.542
L201.783 465.775
L210.762 462.615
L219.741 459.852
L228.719 457.397
L237.698 455.187
L246.677 453.179
L260.145 450.473
L273.613 448.063
L287.081 445.891
L300.549 443.913
L318.506 441.525
L336.463 439.371
L358.91 436.943
L381.357 434.757
L408.293 432.39
L435.229 430.253
L466.654 427.997
L502.569 425.672
L538.484 423.569
L578.888 421.421
L623.781 419.256
L673.164 417.097
L727.036 414.96
L789.886 412.703
L857.227 410.517
L933.545 408.276
L1014.35 406.128
L1036.8 405.566
L1036.8 405.566" style="fill:none;stroke:#000000;stroke-width:3;"/>
   </g>
   <g id="line2d_2">
    <path clip-path="url(#p839c0b4ab8)" d="
M144.315 577.535
L145.156 544.495
L146.838 534.139
L150.201 499.05
L156.927 472.18
L170.379 463.859
L197.284 461.462
L251.094 437.534
L358.713 422.913
L573.952 413.12
L1004.43 388.908" style="fill:none;stroke:#0000ff;"/>
    <defs>
     <path d="
M0 1.5
C0.397805 1.5 0.77937 1.34195 1.06066 1.06066
C1.34195 0.77937 1.5 0.397805 1.5 0
C1.5 -0.397805 1.34195 -0.77937 1.06066 -1.06066
C0.77937 -1.34195 0.397805 -1.5 0 -1.5
C-0.397805 -1.5 -0.77937 -1.34195 -1.06066 -1.06066
C-1.34195 -0.77937 -1.5 -0.397805 -1.5 0
C-1.5 0.397805 -1.34195 0.77937 -1.06066 1.06066
C-0.77937 1.34195 -0.397805 1.5 0 1.5
z
" id="m60516ac18e" style="stroke:#0000ff;stroke-linecap:butt;stroke-width:0.5;"/>
    </defs>
    <g clip-path="url(#p839c0b4ab8)">
     <use style="fill:#0000ff;stroke:#0000ff;stroke-linecap:butt;stroke-width:0.5;" x="144.315291348" xlink:href="#m60516ac18e" y="577.535374886"/>
     <use style="fill:#0000ff;stroke:#0000ff;stroke-linecap:butt;stroke-width:0.5;" x="145.156068275" xlink:href="#m60516ac18e" y="544.495135334"/>
     <use style="fill:#0000ff;stroke:#0000ff;stroke-linecap:butt;stroke-width:0.5;" x="146.837622131" xlink:href="#m60516ac18e" y="534.139288416"/>
     <use style="fill:#0000ff;stroke:#0000ff;stroke-linecap:butt;stroke-width:0.5;" x="150.200729841" xlink:href="#m60516ac18e" y="499.05004176"/>
     <use style="fill:#0000ff;stroke:#0000ff;stroke-linecap:butt;stroke-width:0.5;" x="156.926945262" xlink:href="#m60516ac18e" y="472.180053542"/>
     <use style="fill:#0000ff;stroke:#0000ff;stroke-linecap:butt;stroke-width:0.5;" x="170.379376104" xlink:href="#m60516ac18e" y="463.858962451"/>
     <use style="fill:#0000ff;stroke:#0000ff;stroke-linecap:butt;stroke-width:0.5;" x="197.284237787" xlink:href="#m60516ac18e" y="461.461615315"/>
     <use style="fill:#0000ff;stroke:#0000ff;stroke-linecap:butt;stroke-width:0.5;" x="251.093961154" xlink:href="#m60516ac18e" y="437.534295149"/>
     <use style="fill:#0000ff;stroke:#0000ff;stroke-linecap:butt;stroke-width:0.5;" x="358.713407887" xlink:href="#m60516ac18e" y="422.912926368"/>
     <use style="fill:#0000ff;stroke:#0000ff;stroke-linecap:butt;stroke-width:0.5;" x="573.952301354" xlink:href="#m60516ac18e" y="413.120071066"/>
     <use style="fill:#0000ff;stroke:#0000ff;stroke-linecap:butt;stroke-width:0.5;" x="1004.43008829" xlink:href="#m60516ac18e" y="388.908298944"/>
    </g>
   </g>
   <g id="line2d_3">
    <path clip-path="url(#p839c0b4ab8)" d="
M144.315 589.15
L145.156 558.746
L146.838 544.287
L150.201 500.899
L156.927 459.577
L170.379 424.316
L197.284 375.008
L251.094 315.372
L358.713 245.91
L573.952 162.847
L1004.43 73.49" style="fill:none;stroke:#008000;"/>
    <defs>
     <path d="
M0 1.5
C0.397805 1.5 0.77937 1.34195 1.06066 1.06066
C1.34195 0.77937 1.5 0.397805 1.5 0
C1.5 -0.397805 1.34195 -0.77937 1.06066 -1.06066
C0.77937 -1.34195 0.397805 -1.5 0 -1.5
C-0.397805 -1.5 -0.77937 -1.34195 -1.06066 -1.06066
C-1.34195 -0.77937 -1.5 -0.397805 -1.5 0
C-1.5 0.397805 -1.34195 0.77937 -1.06066 1.06066
C-0.77937 1.34195 -0.397805 1.5 0 1.5
z
" id="m78e0c95df6" style="stroke:#008000;stroke-linecap:butt;stroke-width:0.5;"/>
    </defs>
    <g clip-path="url(#p839c0b4ab8)">
     <use style="fill:#008000;stroke:#008000;stroke-linecap:butt;stroke-width:0.5;" x="144.315291348" xlink:href="#m78e0c95df6" y="589.150033114"/>
     <use style="fill:#008000;stroke:#008000;stroke-linecap:butt;stroke-width:0.5;" x="145.156068275" xlink:href="#m78e0c95df6" y="558.745926797"/>
     <use style="fill:#008000;stroke:#008000;stroke-linecap:butt;stroke-width:0.5;" x="146.837622131" xlink:href="#m78e0c95df6" y="544.286969626"/>
     <use style="fill:#008000;stroke:#008000;stroke-linecap:butt;stroke-width:0.5;" x="150.200729841" xlink:href="#m78e0c95df6" y="500.899310381"/>
     <use style="fill:#008000;stroke:#008000;stroke-linecap:butt;stroke-width:0.5;" x="156.926945262" xlink:href="#m78e0c95df6" y="459.576696442"/>
     <use style="fill:#008000;stroke:#008000;stroke-linecap:butt;stroke-width:0.5;" x="170.379376104" xlink:href="#m78e0c95df6" y="424.315596154"/>
     <use style="fill:#008000;stroke:#008000;stroke-linecap:butt;stroke-width:0.5;" x="197.284237787" xlink:href="#m78e0c95df6" y="375.007656499"/>
     <use style="fill:#008000;stroke:#008000;stroke-linecap:butt;stroke-width:0.5;" x="251.093961154" xlink:href="#m78e0c95df6" y="315.37237248"/>
     <use style="fill:#008000;stroke:#008000;stroke-linecap:butt;stroke-width:0.5;" x="358.713407887" xlink:href="#m78e0c95df6" y="245.910060979"/>
     <use style="fill:#008000;stroke:#008000;stroke-linecap:butt;stroke-width:0.5;" x="573.952301354" xlink:href="#m78e0c95df6" y="162.846803002"/>
     <use style="fill:#008000;stroke:#008000;stroke-linecap:butt;stroke-width:0.5;" x="1004.43008829" xlink:href="#m78e0c95df6" y="73.4900179392"/>
    </g>
   </g>
   <g id="line2d_4">
    <path clip-path="url(#p839c0b4ab8)" d="
M144.315 596.575
L145.156 578.189
L146.838 563.526
L150.201 521.97
L156.927 495.921
L170.379 461.22
L197.284 423.573
L251.094 371.3
L358.713 313.783
L573.952 233.541
L1004.43 133.914" style="fill:none;stroke:#ff0000;"/>
    <defs>
     <path d="
M0 1.5
C0.397805 1.5 0.77937 1.34195 1.06066 1.06066
C1.34195 0.77937 1.5 0.397805 1.5 0
C1.5 -0.397805 1.34195 -0.77937 1.06066 -1.06066
C0.77937 -1.34195 0.397805 -1.5 0 -1.5
C-0.397805 -1.5 -0.77937 -1.34195 -1.06066 -1.06066
C-1.34195 -0.77937 -1.5 -0.397805 -1.5 0
C-1.5 0.397805 -1.34195 0.77937 -1.06066 1.06066
C-0.77937 1.34195 -0.397805 1.5 0 1.5
z
" id="mc0eafcda7b" style="stroke:#ff0000;stroke-linecap:butt;stroke-width:0.5;"/>
    </defs>
    <g clip-path="url(#p839c0b4ab8)">
     <use style="fill:#ff0000;stroke:#ff0000;stroke-linecap:butt;stroke-width:0.5;" x="144.315291348" xlink:href="#mc0eafcda7b" y="596.574926266"/>
     <use style="fill:#ff0000;stroke:#ff0000;stroke-linecap:butt;stroke-width:0.5;" x="145.156068275" xlink:href="#mc0eafcda7b" y="578.189455546"/>
     <use style="fill:#ff0000;stroke:#ff0000;stroke-linecap:butt;stroke-width:0.5;" x="146.837622131" xlink:href="#mc0eafcda7b" y="563.526259488"/>
     <use style="fill:#ff0000;stroke:#ff0000;stroke-linecap:butt;stroke-width:0.5;" x="150.200729841" xlink:href="#mc0eafcda7b" y="521.96984519"/>
     <use style="fill:#ff0000;stroke:#ff0000;stroke-linecap:butt;stroke-width:0.5;" x="156.926945262" xlink:href="#mc0eafcda7b" y="495.920827584"/>
     <use style="fill:#ff0000;stroke:#ff0000;stroke-linecap:butt;stroke-width:0.5;" x="170.379376104" xlink:href="#mc0eafcda7b" y="461.220314285"/>
     <use style="fill:#ff0000;stroke:#ff0000;stroke-linecap:butt;stroke-width:0.5;" x="197.284237787" xlink:href="#mc0eafcda7b" y="423.572522227"/>
     <use style="fill:#ff0000;stroke:#ff0000;stroke-linecap:butt;stroke-width:0.5;" x="251.093961154" xlink:href="#mc0eafcda7b" y="371.29954487"/>
     <use style="fill:#ff0000;stroke:#ff0000;stroke-linecap:butt;stroke-width:0.5;" x="358.713407887" xlink:href="#mc0eafcda7b" y="313.783399238"/>
     <use style="fill:#ff0000;stroke:#ff0000;stroke-linecap:butt;stroke-width:0.5;" x="573.952301354" xlink:href="#mc0eafcda7b" y="233.541342547"/>
     <use style="fill:#ff0000;stroke:#ff0000;stroke-linecap:butt;stroke-width:0.5;" x="1004.43008829" xlink:href="#mc0eafcda7b" y="133.913975558"/>
    </g>
   </g>
   <g id="line2d_5">
    <path clip-path="url(#p839c0b4ab8)" d="
M144.315 598.399
L145.156 585.697
L146.838 574.037
L150.201 542.681
L156.927 502.722
L170.379 483.816
L197.284 451.001
L251.094 404.599
L358.713 358.274
L573.952 293.463
L1004.43 221.575" style="fill:none;stroke:#00bfbf;"/>
    <defs>
     <path d="
M0 1.5
C0.397805 1.5 0.77937 1.34195 1.06066 1.06066
C1.34195 0.77937 1.5 0.397805 1.5 0
C1.5 -0.397805 1.34195 -0.77937 1.06066 -1.06066
C0.77937 -1.34195 0.397805 -1.5 0 -1.5
C-0.397805 -1.5 -0.77937 -1.34195 -1.06066 -1.06066
C-1.34195 -0.77937 -1.5 -0.397805 -1.5 0
C-1.5 0.397805 -1.34195 0.77937 -1.06066 1.06066
C-0.77937 1.34195 -0.397805 1.5 0 1.5
z
" id="m90d600f257" style="stroke:#00bfbf;stroke-linecap:butt;stroke-width:0.5;"/>
    </defs>
    <g clip-path="url(#p839c0b4ab8)">
     <use style="fill:#00bfbf;stroke:#00bfbf;stroke-linecap:butt;stroke-width:0.5;" x="144.315291348" xlink:href="#m90d600f257" y="598.3992"/>
     <use style="fill:#00bfbf;stroke:#00bfbf;stroke-linecap:butt;stroke-width:0.5;" x="145.156068275" xlink:href="#m90d600f257" y="585.697098758"/>
     <use style="fill:#00bfbf;stroke:#00bfbf;stroke-linecap:butt;stroke-width:0.5;" x="146.837622131" xlink:href="#m90d600f257" y="574.037105587"/>
     <use style="fill:#00bfbf;stroke:#00bfbf;stroke-linecap:butt;stroke-width:0.5;" x="150.200729841" xlink:href="#m90d600f257" y="542.681031629"/>
     <use style="fill:#00bfbf;stroke:#00bfbf;stroke-linecap:butt;stroke-width:0.5;" x="156.926945262" xlink:href="#m90d600f257" y="502.722436954"/>
     <use style="fill:#00bfbf;stroke:#00bfbf;stroke-linecap:butt;stroke-width:0.5;" x="170.379376104" xlink:href="#m90d600f257" y="483.81624311"/>
     <use style="fill:#00bfbf;stroke:#00bfbf;stroke-linecap:butt;stroke-width:0.5;" x="197.284237787" xlink:href="#m90d600f257" y="451.000648685"/>
     <use style="fill:#00bfbf;stroke:#00bfbf;stroke-linecap:butt;stroke-width:0.5;" x="251.093961154" xlink:href="#m90d600f257" y="404.599307674"/>
     <use style="fill:#00bfbf;stroke:#00bfbf;stroke-linecap:butt;stroke-width:0.5;" x="358.713407887" xlink:href="#m90d600f257" y="358.274429395"/>
     <use style="fill:#00bfbf;stroke:#00bfbf;stroke-linecap:butt;stroke-width:0.5;" x="573.952301354" xlink:href="#m90d600f257" y="293.462887507"/>
     <use style="fill:#00bfbf;stroke:#00bfbf;stroke-linecap:butt;stroke-width:0.5;" x="1004.43008829" xlink:href="#m90d600f257" y="221.575344019"/>
    </g>
   </g>
   <g id="line2d_6">
    <path clip-path="url(#p839c0b4ab8)" d="
M144.315 598.399
L145.156 592.8
L146.838 581.457
L150.201 551.47
L156.927 520.257
L170.379 494.819
L197.284 459.152
L251.094 420.423
L358.713 382.311
L573.952 323.784
L1004.43 258.736" style="fill:none;stroke:#bf00bf;"/>
    <defs>
     <path d="
M0 1.5
C0.397805 1.5 0.77937 1.34195 1.06066 1.06066
C1.34195 0.77937 1.5 0.397805 1.5 0
C1.5 -0.397805 1.34195 -0.77937 1.06066 -1.06066
C0.77937 -1.34195 0.397805 -1.5 0 -1.5
C-0.397805 -1.5 -0.77937 -1.34195 -1.06066 -1.06066
C-1.34195 -0.77937 -1.5 -0.397805 -1.5 0
C-1.5 0.397805 -1.34195 0.77937 -1.06066 1.06066
C-0.77937 1.34195 -0.397805 1.5 0 1.5
z
" id="mc0debf2262" style="stroke:#bf00bf;stroke-linecap:butt;stroke-width:0.5;"/>
    </defs>
    <g clip-path="url(#p839c0b4ab8)">
     <use style="fill:#bf00bf;stroke:#bf00bf;stroke-linecap:butt;stroke-width:0.5;" x="144.315291348" xlink:href="#mc0debf2262" y="598.3992"/>
     <use style="fill:#bf00bf;stroke:#bf00bf;stroke-linecap:butt;stroke-width:0.5;" x="145.156068275" xlink:href="#mc0debf2262" y="592.79961744"/>
     <use style="fill:#bf00bf;stroke:#bf00bf;stroke-linecap:butt;stroke-width:0.5;" x="146.837622131" xlink:href="#mc0debf2262" y="581.457167424"/>
     <use style="fill:#bf00bf;stroke:#bf00bf;stroke-linecap:butt;stroke-width:0.5;" x="150.200729841" xlink:href="#mc0debf2262" y="551.469701376"/>
     <use style="fill:#bf00bf;stroke:#bf00bf;stroke-linecap:butt;stroke-width:0.5;" x="156.926945262" xlink:href="#mc0debf2262" y="520.257397651"/>
     <use style="fill:#bf00bf;stroke:#bf00bf;stroke-linecap:butt;stroke-width:0.5;" x="170.379376104" xlink:href="#mc0debf2262" y="494.818824442"/>
     <use style="fill:#bf00bf;stroke:#bf00bf;stroke-linecap:butt;stroke-width:0.5;" x="197.284237787" xlink:href="#mc0debf2262" y="459.151540704"/>
     <use style="fill:#bf00bf;stroke:#bf00bf;stroke-linecap:butt;stroke-width:0.5;" x="251.093961154" xlink:href="#mc0debf2262" y="420.422548838"/>
     <use style="fill:#bf00bf;stroke:#bf00bf;stroke-linecap:butt;stroke-width:0.5;" x="358.713407887" xlink:href="#mc0debf2262" y="382.311435859"/>
     <use style="fill:#bf00bf;stroke:#bf00bf;stroke-linecap:butt;stroke-width:0.5;" x="573.952301354" xlink:href="#mc0debf2262" y="323.784111398"/>
     <use style="fill:#bf00bf;stroke:#bf00bf;stroke-linecap:butt;stroke-width:0.5;" x="1004.43008829" xlink:href="#mc0debf2262" y="258.736298342"/>
    </g>
   </g>
   <g id="line2d_7">
    <path clip-path="url(#p839c0b4ab8)" d="
M144.315 598.399
L145.156 598.399
L146.838 596.944
L150.201 583.758
L156.927 557.363
L170.379 529.56
L197.284 498.574
L251.094 465.663
L358.713 429.49
L573.952 386.773" style="fill:none;stroke:#bfbf00;"/>
    <defs>
     <path d="
M0 1.5
C0.397805 1.5 0.77937 1.34195 1.06066 1.06066
C1.34195 0.77937 1.5 0.397805 1.5 0
C1.5 -0.397805 1.34195 -0.77937 1.06066 -1.06066
C0.77937 -1.34195 0.397805 -1.5 0 -1.5
C-0.397805 -1.5 -0.77937 -1.34195 -1.06066 -1.06066
C-1.34195 -0.77937 -1.5 -0.397805 -1.5 0
C-1.5 0.397805 -1.34195 0.77937 -1.06066 1.06066
C-0.77937 1.34195 -0.397805 1.5 0 1.5
z
" id="m3ee41cdeb1" style="stroke:#bfbf00;stroke-linecap:butt;stroke-width:0.5;"/>
    </defs>
    <g clip-path="url(#p839c0b4ab8)">
     <use style="fill:#bfbf00;stroke:#bfbf00;stroke-linecap:butt;stroke-width:0.5;" x="144.315291348" xlink:href="#m3ee41cdeb1" y="598.3992"/>
     <use style="fill:#bfbf00;stroke:#bfbf00;stroke-linecap:butt;stroke-width:0.5;" x="145.156068275" xlink:href="#m3ee41cdeb1" y="598.3992"/>
     <use style="fill:#bfbf00;stroke:#bfbf00;stroke-linecap:butt;stroke-width:0.5;" x="146.837622131" xlink:href="#m3ee41cdeb1" y="596.943981389"/>
     <use style="fill:#bfbf00;stroke:#bfbf00;stroke-linecap:butt;stroke-width:0.5;" x="150.200729841" xlink:href="#m3ee41cdeb1" y="583.757800013"/>
     <use style="fill:#bfbf00;stroke:#bfbf00;stroke-linecap:butt;stroke-width:0.5;" x="156.926945262" xlink:href="#m3ee41cdeb1" y="557.363023488"/>
     <use style="fill:#bfbf00;stroke:#bfbf00;stroke-linecap:butt;stroke-width:0.5;" x="170.379376104" xlink:href="#m3ee41cdeb1" y="529.559532518"/>
     <use style="fill:#bfbf00;stroke:#bfbf00;stroke-linecap:butt;stroke-width:0.5;" x="197.284237787" xlink:href="#m3ee41cdeb1" y="498.573594662"/>
     <use style="fill:#bfbf00;stroke:#bfbf00;stroke-linecap:butt;stroke-width:0.5;" x="251.093961154" xlink:href="#m3ee41cdeb1" y="465.662697581"/>
     <use style="fill:#bfbf00;stroke:#bfbf00;stroke-linecap:butt;stroke-width:0.5;" x="358.713407887" xlink:href="#m3ee41cdeb1" y="429.489670003"/>
     <use style="fill:#bfbf00;stroke:#bfbf00;stroke-linecap:butt;stroke-width:0.5;" x="573.952301354" xlink:href="#m3ee41cdeb1" y="386.773431206"/>
    </g>
   </g>
   <g id="line2d_8">
    <path clip-path="url(#p839c0b4ab8)" d="
M144.315 598.399
L145.156 598.399
L146.838 598.399
L150.201 597.177
L156.927 583.82
L170.379 561.76
L197.284 532.117
L251.094 497.388
L358.713 465.046
L573.952 421.988" style="fill:none;stroke:#000000;"/>
    <defs>
     <path d="
M0 1.5
C0.397805 1.5 0.77937 1.34195 1.06066 1.06066
C1.34195 0.77937 1.5 0.397805 1.5 0
C1.5 -0.397805 1.34195 -0.77937 1.06066 -1.06066
C0.77937 -1.34195 0.397805 -1.5 0 -1.5
C-0.397805 -1.5 -0.77937 -1.34195 -1.06066 -1.06066
C-1.34195 -0.77937 -1.5 -0.397805 -1.5 0
C-1.5 0.397805 -1.34195 0.77937 -1.06066 1.06066
C-0.77937 1.34195 -0.397805 1.5 0 1.5
z
" id="m37a92066f2" style="stroke:#000000;stroke-linecap:butt;stroke-width:0.5;"/>
    </defs>
    <g clip-path="url(#p839c0b4ab8)">
     <use style="stroke:#000000;stroke-linecap:butt;stroke-width:0.5;" x="144.315291348" xlink:href="#m37a92066f2" y="598.3992"/>
     <use style="stroke:#000000;stroke-linecap:butt;stroke-width:0.5;" x="145.156068275" xlink:href="#m37a92066f2" y="598.3992"/>
     <use style="stroke:#000000;stroke-linecap:butt;stroke-width:0.5;" x="146.837622131" xlink:href="#m37a92066f2" y="598.3992"/>
     <use style="stroke:#000000;stroke-linecap:butt;stroke-width:0.5;" x="150.200729841" xlink:href="#m37a92066f2" y="597.176855194"/>
     <use style="stroke:#000000;stroke-linecap:butt;stroke-width:0.5;" x="156.926945262" xlink:href="#m37a92066f2" y="583.819989408"/>
     <use style="stroke:#000000;stroke-linecap:butt;stroke-width:0.5;" x="170.379376104" xlink:href="#m37a92066f2" y="561.759917414"/>
     <use style="stroke:#000000;stroke-linecap:butt;stroke-width:0.5;" x="197.284237787" xlink:href="#m37a92066f2" y="532.117327853"/>
     <use style="stroke:#000000;stroke-linecap:butt;stroke-width:0.5;" x="251.093961154" xlink:href="#m37a92066f2" y="497.388312"/>
     <use style="stroke:#000000;stroke-linecap:butt;stroke-width:0.5;" x="358.713407887" xlink:href="#m37a92066f2" y="465.045679066"/>
     <use style="stroke:#000000;stroke-linecap:butt;stroke-width:0.5;" x="573.952301354" xlink:href="#m37a92066f2" y="421.987872902"/>
    </g>
   </g>
   <g id="matplotlib.axis_1">
    <g id="xtick_1">
     <g id="line2d_9">
      <defs>
       <path d="
M0 0
L0 -4" id="m0012dd4eef" style="stroke:#000000;stroke-linecap:butt;stroke-width:0.5;"/>
      </defs>
      <g>
       <use style="stroke:#000000;stroke-linecap:butt;stroke-width:0.5;" x="248.571630371" xlink:href="#m0012dd4eef" y="620.46"/>
      </g>
     </g>
     <g id="line2d_10">
      <defs>
       <path d="
M0 0
L0 4" id="m476344969c" style="stroke:#000000;stroke-linecap:butt;stroke-width:0.5;"/>
      </defs>
      <g>
       <use style="stroke:#000000;stroke-linecap:butt;stroke-width:0.5;" x="248.571630371" xlink:href="#m476344969c" y="68.94"/>
      </g>
     </g>
     <g id="text_1">
      <!-- 2000 -->
      <defs>
       <path d="
M19.1875 8.29688
L53.6094 8.29688
L53.6094 0
L7.32812 0
L7.32812 8.29688
Q12.9375 14.1094 22.625 23.8906
Q32.3281 33.6875 34.8125 36.5312
Q39.5469 41.8438 41.4219 45.5312
Q43.3125 49.2188 43.3125 52.7812
Q43.3125 58.5938 39.2344 62.25
Q35.1562 65.9219 28.6094 65.9219
Q23.9688 65.9219 18.8125 64.3125
Q13.6719 62.7031 7.8125 59.4219
L7.8125 69.3906
Q13.7656 71.7812 18.9375 73
Q24.125 74.2188 28.4219 74.2188
Q39.75 74.2188 46.4844 68.5469
Q53.2188 62.8906 53.2188 53.4219
Q53.2188 48.9219 51.5312 44.8906
Q49.8594 40.875 45.4062 35.4062
Q44.1875 33.9844 37.6406 27.2188
Q31.1094 20.4531 19.1875 8.29688" id="BitstreamVeraSans-Roman-32"/>
       <path d="
M31.7812 66.4062
Q24.1719 66.4062 20.3281 58.9062
Q16.5 51.4219 16.5 36.375
Q16.5 21.3906 20.3281 13.8906
Q24.1719 6.39062 31.7812 6.39062
Q39.4531 6.39062 43.2812 13.8906
Q47.125 21.3906 47.125 36.375
Q47.125 51.4219 43.2812 58.9062
Q39.4531 66.4062 31.7812 66.4062
M31.7812 74.2188
Q44.0469 74.2188 50.5156 64.5156
Q56.9844 54.8281 56.9844 36.375
Q56.9844 17.9688 50.5156 8.26562
Q44.0469 -1.42188 31.7812 -1.42188
Q19.5312 -1.42188 13.0625 8.26562
Q6.59375 17.9688 6.59375 36.375
Q6.59375 54.8281 13.0625 64.5156
Q19.5312 74.2188 31.7812 74.2188" id="BitstreamVeraSans-Roman-30"/>
      </defs>
      <g transform="translate(234.139755371 633.36625)scale(0.12 -0.12)">
       <use xlink:href="#BitstreamVeraSans-Roman-32"/>
       <use x="63.623046875" xlink:href="#BitstreamVeraSans-Roman-30"/>
       <use x="127.24609375" xlink:href="#BitstreamVeraSans-Roman-30"/>
       <use x="190.869140625" xlink:href="#BitstreamVeraSans-Roman-30"/>
      </g>
     </g>
    </g>
    <g id="xtick_2">
     <g id="line2d_11">
      <g>
       <use style="stroke:#000000;stroke-linecap:butt;stroke-width:0.5;" x="353.668746321" xlink:href="#m0012dd4eef" y="620.46"/>
      </g>
     </g>
     <g id="line2d_12">
      <g>
       <use style="stroke:#000000;stroke-linecap:butt;stroke-width:0.5;" x="353.668746321" xlink:href="#m476344969c" y="68.94"/>
      </g>
     </g>
     <g id="text_2">
      <!-- 4000 -->
      <defs>
       <path d="
M37.7969 64.3125
L12.8906 25.3906
L37.7969 25.3906
z

M35.2031 72.9062
L47.6094 72.9062
L47.6094 25.3906
L58.0156 25.3906
L58.0156 17.1875
L47.6094 17.1875
L47.6094 0
L37.7969 0
L37.7969 17.1875
L4.89062 17.1875
L4.89062 26.7031
z
" id="BitstreamVeraSans-Roman-34"/>
      </defs>
      <g transform="translate(339.090621321 633.36625)scale(0.12 -0.12)">
       <use xlink:href="#BitstreamVeraSans-Roman-34"/>
       <use x="63.623046875" xlink:href="#BitstreamVeraSans-Roman-30"/>
       <use x="127.24609375" xlink:href="#BitstreamVeraSans-Roman-30"/>
       <use x="190.869140625" xlink:href="#BitstreamVeraSans-Roman-30"/>
      </g>
     </g>
    </g>
    <g id="xtick_3">
     <g id="line2d_13">
      <g>
       <use style="stroke:#000000;stroke-linecap:butt;stroke-width:0.5;" x="458.765862272" xlink:href="#m0012dd4eef" y="620.46"/>
      </g>
     </g>
     <g id="line2d_14">
      <g>
       <use style="stroke:#000000;stroke-linecap:butt;stroke-width:0.5;" x="458.765862272" xlink:href="#m476344969c" y="68.94"/>
      </g>
     </g>
     <g id="text_3">
      <!-- 6000 -->
      <defs>
       <path d="
M33.0156 40.375
Q26.375 40.375 22.4844 35.8281
Q18.6094 31.2969 18.6094 23.3906
Q18.6094 15.5312 22.4844 10.9531
Q26.375 6.39062 33.0156 6.39062
Q39.6562 6.39062 43.5312 10.9531
Q47.4062 15.5312 47.4062 23.3906
Q47.4062 31.2969 43.5312 35.8281
Q39.6562 40.375 33.0156 40.375
M52.5938 71.2969
L52.5938 62.3125
Q48.875 64.0625 45.0938 64.9844
Q41.3125 65.9219 37.5938 65.9219
Q27.8281 65.9219 22.6719 59.3281
Q17.5312 52.7344 16.7969 39.4062
Q19.6719 43.6562 24.0156 45.9219
Q28.375 48.1875 33.5938 48.1875
Q44.5781 48.1875 50.9531 41.5156
Q57.3281 34.8594 57.3281 23.3906
Q57.3281 12.1562 50.6875 5.35938
Q44.0469 -1.42188 33.0156 -1.42188
Q20.3594 -1.42188 13.6719 8.26562
Q6.98438 17.9688 6.98438 36.375
Q6.98438 53.6562 15.1875 63.9375
Q23.3906 74.2188 37.2031 74.2188
Q40.9219 74.2188 44.7031 73.4844
Q48.4844 72.75 52.5938 71.2969" id="BitstreamVeraSans-Roman-36"/>
      </defs>
      <g transform="translate(444.313362272 633.36625)scale(0.12 -0.12)">
       <use xlink:href="#BitstreamVeraSans-Roman-36"/>
       <use x="63.623046875" xlink:href="#BitstreamVeraSans-Roman-30"/>
       <use x="127.24609375" xlink:href="#BitstreamVeraSans-Roman-30"/>
       <use x="190.869140625" xlink:href="#BitstreamVeraSans-Roman-30"/>
      </g>
     </g>
    </g>
    <g id="xtick_4">
     <g id="line2d_15">
      <g>
       <use style="stroke:#000000;stroke-linecap:butt;stroke-width:0.5;" x="563.862978222" xlink:href="#m0012dd4eef" y="620.46"/>
      </g>
     </g>
     <g id="line2d_16">
      <g>
       <use style="stroke:#000000;stroke-linecap:butt;stroke-width:0.5;" x="563.862978222" xlink:href="#m476344969c" y="68.94"/>
      </g>
     </g>
     <g id="text_4">
      <!-- 8000 -->
      <defs>
       <path d="
M31.7812 34.625
Q24.75 34.625 20.7188 30.8594
Q16.7031 27.0938 16.7031 20.5156
Q16.7031 13.9219 20.7188 10.1562
Q24.75 6.39062 31.7812 6.39062
Q38.8125 6.39062 42.8594 10.1719
Q46.9219 13.9688 46.9219 20.5156
Q46.9219 27.0938 42.8906 30.8594
Q38.875 34.625 31.7812 34.625
M21.9219 38.8125
Q15.5781 40.375 12.0312 44.7188
Q8.5 49.0781 8.5 55.3281
Q8.5 64.0625 14.7188 69.1406
Q20.9531 74.2188 31.7812 74.2188
Q42.6719 74.2188 48.875 69.1406
Q55.0781 64.0625 55.0781 55.3281
Q55.0781 49.0781 51.5312 44.7188
Q48 40.375 41.7031 38.8125
Q48.8281 37.1562 52.7969 32.3125
Q56.7812 27.4844 56.7812 20.5156
Q56.7812 9.90625 50.3125 4.23438
Q43.8438 -1.42188 31.7812 -1.42188
Q19.7344 -1.42188 13.25 4.23438
Q6.78125 9.90625 6.78125 20.5156
Q6.78125 27.4844 10.7812 32.3125
Q14.7969 37.1562 21.9219 38.8125
M18.3125 54.3906
Q18.3125 48.7344 21.8438 45.5625
Q25.3906 42.3906 31.7812 42.3906
Q38.1406 42.3906 41.7188 45.5625
Q45.3125 48.7344 45.3125 54.3906
Q45.3125 60.0625 41.7188 63.2344
Q38.1406 66.4062 31.7812 66.4062
Q25.3906 66.4062 21.8438 63.2344
Q18.3125 60.0625 18.3125 54.3906" id="BitstreamVeraSans-Roman-38"/>
      </defs>
      <g transform="translate(549.398290722 633.36625)scale(0.12 -0.12)">
       <use xlink:href="#BitstreamVeraSans-Roman-38"/>
       <use x="63.623046875" xlink:href="#BitstreamVeraSans-Roman-30"/>
       <use x="127.24609375" xlink:href="#BitstreamVeraSans-Roman-30"/>
       <use x="190.869140625" xlink:href="#BitstreamVeraSans-Roman-30"/>
      </g>
     </g>
    </g>
    <g id="xtick_5">
     <g id="line2d_17">
      <g>
       <use style="stroke:#000000;stroke-linecap:butt;stroke-width:0.5;" x="668.960094173" xlink:href="#m0012dd4eef" y="620.46"/>
      </g>
     </g>
     <g id="line2d_18">
      <g>
       <use style="stroke:#000000;stroke-linecap:butt;stroke-width:0.5;" x="668.960094173" xlink:href="#m476344969c" y="68.94"/>
      </g>
     </g>
     <g id="text_5">
      <!-- 10000 -->
      <defs>
       <path d="
M12.4062 8.29688
L28.5156 8.29688
L28.5156 63.9219
L10.9844 60.4062
L10.9844 69.3906
L28.4219 72.9062
L38.2812 72.9062
L38.2812 8.29688
L54.3906 8.29688
L54.3906 0
L12.4062 0
z
" id="BitstreamVeraSans-Roman-31"/>
      </defs>
      <g transform="translate(650.930094173 633.36625)scale(0.12 -0.12)">
       <use xlink:href="#BitstreamVeraSans-Roman-31"/>
       <use x="63.623046875" xlink:href="#BitstreamVeraSans-Roman-30"/>
       <use x="127.24609375" xlink:href="#BitstreamVeraSans-Roman-30"/>
       <use x="190.869140625" xlink:href="#BitstreamVeraSans-Roman-30"/>
       <use x="254.4921875" xlink:href="#BitstreamVeraSans-Roman-30"/>
      </g>
     </g>
    </g>
    <g id="xtick_6">
     <g id="line2d_19">
      <g>
       <use style="stroke:#000000;stroke-linecap:butt;stroke-width:0.5;" x="774.057210124" xlink:href="#m0012dd4eef" y="620.46"/>
      </g>
     </g>
     <g id="line2d_20">
      <g>
       <use style="stroke:#000000;stroke-linecap:butt;stroke-width:0.5;" x="774.057210124" xlink:href="#m476344969c" y="68.94"/>
      </g>
     </g>
     <g id="text_6">
      <!-- 12000 -->
      <g transform="translate(756.027210124 633.36625)scale(0.12 -0.12)">
       <use xlink:href="#BitstreamVeraSans-Roman-31"/>
       <use x="63.623046875" xlink:href="#BitstreamVeraSans-Roman-32"/>
       <use x="127.24609375" xlink:href="#BitstreamVeraSans-Roman-30"/>
       <use x="190.869140625" xlink:href="#BitstreamVeraSans-Roman-30"/>
       <use x="254.4921875" xlink:href="#BitstreamVeraSans-Roman-30"/>
      </g>
     </g>
    </g>
    <g id="xtick_7">
     <g id="line2d_21">
      <g>
       <use style="stroke:#000000;stroke-linecap:butt;stroke-width:0.5;" x="879.154326074" xlink:href="#m0012dd4eef" y="620.46"/>
      </g>
     </g>
     <g id="line2d_22">
      <g>
       <use style="stroke:#000000;stroke-linecap:butt;stroke-width:0.5;" x="879.154326074" xlink:href="#m476344969c" y="68.94"/>
      </g>
     </g>
     <g id="text_7">
      <!-- 14000 -->
      <g transform="translate(861.124326074 633.36625)scale(0.12 -0.12)">
       <use xlink:href="#BitstreamVeraSans-Roman-31"/>
       <use x="63.623046875" xlink:href="#BitstreamVeraSans-Roman-34"/>
       <use x="127.24609375" xlink:href="#BitstreamVeraSans-Roman-30"/>
       <use x="190.869140625" xlink:href="#BitstreamVeraSans-Roman-30"/>
       <use x="254.4921875" xlink:href="#BitstreamVeraSans-Roman-30"/>
      </g>
     </g>
    </g>
    <g id="xtick_8">
     <g id="line2d_23">
      <g>
       <use style="stroke:#000000;stroke-linecap:butt;stroke-width:0.5;" x="984.251442025" xlink:href="#m0012dd4eef" y="620.46"/>
      </g>
     </g>
     <g id="line2d_24">
      <g>
       <use style="stroke:#000000;stroke-linecap:butt;stroke-width:0.5;" x="984.251442025" xlink:href="#m476344969c" y="68.94"/>
      </g>
     </g>
     <g id="text_8">
      <!-- 16000 -->
      <g transform="translate(966.221442025 633.36625)scale(0.12 -0.12)">
       <use xlink:href="#BitstreamVeraSans-Roman-31"/>
       <use x="63.623046875" xlink:href="#BitstreamVeraSans-Roman-36"/>
       <use x="127.24609375" xlink:href="#BitstreamVeraSans-Roman-30"/>
       <use x="190.869140625" xlink:href="#BitstreamVeraSans-Roman-30"/>
       <use x="254.4921875" xlink:href="#BitstreamVeraSans-Roman-30"/>
      </g>
     </g>
    </g>
    <g id="text_9">
     <!-- Number of nodes -->
     <defs>
      <path id="BitstreamVeraSans-Roman-20"/>
      <path d="
M9.8125 72.9062
L23.0938 72.9062
L55.4219 11.9219
L55.4219 72.9062
L64.9844 72.9062
L64.9844 0
L51.7031 0
L19.3906 60.9844
L19.3906 0
L9.8125 0
z
" id="BitstreamVeraSans-Roman-4e"/>
      <path d="
M37.1094 75.9844
L37.1094 68.5
L28.5156 68.5
Q23.6875 68.5 21.7969 66.5469
Q19.9219 64.5938 19.9219 59.5156
L19.9219 54.6875
L34.7188 54.6875
L34.7188 47.7031
L19.9219 47.7031
L19.9219 0
L10.8906 0
L10.8906 47.7031
L2.29688 47.7031
L2.29688 54.6875
L10.8906 54.6875
L10.8906 58.5
Q10.8906 67.625 15.1406 71.7969
Q19.3906 75.9844 28.6094 75.9844
z
" id="BitstreamVeraSans-Roman-66"/>
      <path d="
M54.8906 33.0156
L54.8906 0
L45.9062 0
L45.9062 32.7188
Q45.9062 40.4844 42.875 44.3281
Q39.8438 48.1875 33.7969 48.1875
Q26.5156 48.1875 22.3125 43.5469
Q18.1094 38.9219 18.1094 30.9062
L18.1094 0
L9.07812 0
L9.07812 54.6875
L18.1094 54.6875
L18.1094 46.1875
Q21.3438 51.125 25.7031 53.5625
Q30.0781 56 35.7969 56
Q45.2188 56 50.0469 50.1719
Q54.8906 44.3438 54.8906 33.0156" id="BitstreamVeraSans-Roman-6e"/>
      <path d="
M52 44.1875
Q55.375 50.25 60.0625 53.125
Q64.75 56 71.0938 56
Q79.6406 56 84.2812 50.0156
Q88.9219 44.0469 88.9219 33.0156
L88.9219 0
L79.8906 0
L79.8906 32.7188
Q79.8906 40.5781 77.0938 44.375
Q74.3125 48.1875 68.6094 48.1875
Q61.625 48.1875 57.5625 43.5469
Q53.5156 38.9219 53.5156 30.9062
L53.5156 0
L44.4844 0
L44.4844 32.7188
Q44.4844 40.625 41.7031 44.4062
Q38.9219 48.1875 33.1094 48.1875
Q26.2188 48.1875 22.1562 43.5312
Q18.1094 38.875 18.1094 30.9062
L18.1094 0
L9.07812 0
L9.07812 54.6875
L18.1094 54.6875
L18.1094 46.1875
Q21.1875 51.2188 25.4844 53.6094
Q29.7812 56 35.6875 56
Q41.6562 56 45.8281 52.9688
Q50 49.9531 52 44.1875" id="BitstreamVeraSans-Roman-6d"/>
      <path d="
M30.6094 48.3906
Q23.3906 48.3906 19.1875 42.75
Q14.9844 37.1094 14.9844 27.2969
Q14.9844 17.4844 19.1562 11.8438
Q23.3438 6.20312 30.6094 6.20312
Q37.7969 6.20312 41.9844 11.8594
Q46.1875 17.5312 46.1875 27.2969
Q46.1875 37.0156 41.9844 42.7031
Q37.7969 48.3906 30.6094 48.3906
M30.6094 56
Q42.3281 56 49.0156 48.375
Q55.7188 40.7656 55.7188 27.2969
Q55.7188 13.875 49.0156 6.21875
Q42.3281 -1.42188 30.6094 -1.42188
Q18.8438 -1.42188 12.1719 6.21875
Q5.51562 13.875 5.51562 27.2969
Q5.51562 40.7656 12.1719 48.375
Q18.8438 56 30.6094 56" id="BitstreamVeraSans-Roman-6f"/>
      <path d="
M56.2031 29.5938
L56.2031 25.2031
L14.8906 25.2031
Q15.4844 15.9219 20.4844 11.0625
Q25.4844 6.20312 34.4219 6.20312
Q39.5938 6.20312 44.4531 7.46875
Q49.3125 8.73438 54.1094 11.2812
L54.1094 2.78125
Q49.2656 0.734375 44.1875 -0.34375
Q39.1094 -1.42188 33.8906 -1.42188
Q20.7969 -1.42188 13.1562 6.1875
Q5.51562 13.8125 5.51562 26.8125
Q5.51562 40.2344 12.7656 48.1094
Q20.0156 56 32.3281 56
Q43.3594 56 49.7812 48.8906
Q56.2031 41.7969 56.2031 29.5938
M47.2188 32.2344
Q47.125 39.5938 43.0938 43.9844
Q39.0625 48.3906 32.4219 48.3906
Q24.9062 48.3906 20.3906 44.1406
Q15.875 39.8906 15.1875 32.1719
z
" id="BitstreamVeraSans-Roman-65"/>
      <path d="
M45.4062 46.3906
L45.4062 75.9844
L54.3906 75.9844
L54.3906 0
L45.4062 0
L45.4062 8.20312
Q42.5781 3.32812 38.25 0.953125
Q33.9375 -1.42188 27.875 -1.42188
Q17.9688 -1.42188 11.7344 6.48438
Q5.51562 14.4062 5.51562 27.2969
Q5.51562 40.1875 11.7344 48.0938
Q17.9688 56 27.875 56
Q33.9375 56 38.25 53.625
Q42.5781 51.2656 45.4062 46.3906
M14.7969 27.2969
Q14.7969 17.3906 18.875 11.75
Q22.9531 6.10938 30.0781 6.10938
Q37.2031 6.10938 41.2969 11.75
Q45.4062 17.3906 45.4062 27.2969
Q45.4062 37.2031 41.2969 42.8438
Q37.2031 48.4844 30.0781 48.4844
Q22.9531 48.4844 18.875 42.8438
Q14.7969 37.2031 14.7969 27.2969" id="BitstreamVeraSans-Roman-64"/>
      <path d="
M8.5 21.5781
L8.5 54.6875
L17.4844 54.6875
L17.4844 21.9219
Q17.4844 14.1562 20.5 10.2656
Q23.5312 6.39062 29.5938 6.39062
Q36.8594 6.39062 41.0781 11.0312
Q45.3125 15.6719 45.3125 23.6875
L45.3125 54.6875
L54.2969 54.6875
L54.2969 0
L45.3125 0
L45.3125 8.40625
Q42.0469 3.42188 37.7188 1
Q33.4062 -1.42188 27.6875 -1.42188
Q18.2656 -1.42188 13.375 4.4375
Q8.5 10.2969 8.5 21.5781" id="BitstreamVeraSans-Roman-75"/>
      <path d="
M41.1094 46.2969
Q39.5938 47.1719 37.8125 47.5781
Q36.0312 48 33.8906 48
Q26.2656 48 22.1875 43.0469
Q18.1094 38.0938 18.1094 28.8125
L18.1094 0
L9.07812 0
L9.07812 54.6875
L18.1094 54.6875
L18.1094 46.1875
Q20.9531 51.1719 25.4844 53.5781
Q30.0312 56 36.5312 56
Q37.4531 56 38.5781 55.875
Q39.7031 55.7656 41.0625 55.5156
z
" id="BitstreamVeraSans-Roman-72"/>
      <path d="
M44.2812 53.0781
L44.2812 44.5781
Q40.4844 46.5312 36.375 47.5
Q32.2812 48.4844 27.875 48.4844
Q21.1875 48.4844 17.8438 46.4375
Q14.5 44.3906 14.5 40.2812
Q14.5 37.1562 16.8906 35.375
Q19.2812 33.5938 26.5156 31.9844
L29.5938 31.2969
Q39.1562 29.25 43.1875 25.5156
Q47.2188 21.7812 47.2188 15.0938
Q47.2188 7.46875 41.1875 3.01562
Q35.1562 -1.42188 24.6094 -1.42188
Q20.2188 -1.42188 15.4531 -0.5625
Q10.6875 0.296875 5.42188 2
L5.42188 11.2812
Q10.4062 8.6875 15.2344 7.39062
Q20.0625 6.10938 24.8125 6.10938
Q31.1562 6.10938 34.5625 8.28125
Q37.9844 10.4531 37.9844 14.4062
Q37.9844 18.0625 35.5156 20.0156
Q33.0625 21.9688 24.7031 23.7812
L21.5781 24.5156
Q13.2344 26.2656 9.51562 29.9062
Q5.8125 33.5469 5.8125 39.8906
Q5.8125 47.6094 11.2812 51.7969
Q16.75 56 26.8125 56
Q31.7812 56 36.1719 55.2656
Q40.5781 54.5469 44.2812 53.0781" id="BitstreamVeraSans-Roman-73"/>
      <path d="
M48.6875 27.2969
Q48.6875 37.2031 44.6094 42.8438
Q40.5312 48.4844 33.4062 48.4844
Q26.2656 48.4844 22.1875 42.8438
Q18.1094 37.2031 18.1094 27.2969
Q18.1094 17.3906 22.1875 11.75
Q26.2656 6.10938 33.4062 6.10938
Q40.5312 6.10938 44.6094 11.75
Q48.6875 17.3906 48.6875 27.2969
M18.1094 46.3906
Q20.9531 51.2656 25.2656 53.625
Q29.5938 56 35.5938 56
Q45.5625 56 51.7812 48.0938
Q58.0156 40.1875 58.0156 27.2969
Q58.0156 14.4062 51.7812 6.48438
Q45.5625 -1.42188 35.5938 -1.42188
Q29.5938 -1.42188 25.2656 0.953125
Q20.9531 3.32812 18.1094 8.20312
L18.1094 0
L9.07812 0
L9.07812 75.9844
L18.1094 75.9844
z
" id="BitstreamVeraSans-Roman-62"/>
     </defs>
     <g transform="translate(538.891875 647.655)scale(0.12 -0.12)">
      <use xlink:href="#BitstreamVeraSans-Roman-4e"/>
      <use x="74.8046875" xlink:href="#BitstreamVeraSans-Roman-75"/>
      <use x="138.18359375" xlink:href="#BitstreamVeraSans-Roman-6d"/>
      <use x="235.595703125" xlink:href="#BitstreamVeraSans-Roman-62"/>
      <use x="299.072265625" xlink:href="#BitstreamVeraSans-Roman-65"/>
      <use x="360.595703125" xlink:href="#BitstreamVeraSans-Roman-72"/>
      <use x="401.708984375" xlink:href="#BitstreamVeraSans-Roman-20"/>
      <use x="433.49609375" xlink:href="#BitstreamVeraSans-Roman-6f"/>
      <use x="494.677734375" xlink:href="#BitstreamVeraSans-Roman-66"/>
      <use x="529.8828125" xlink:href="#BitstreamVeraSans-Roman-20"/>
      <use x="561.669921875" xlink:href="#BitstreamVeraSans-Roman-6e"/>
      <use x="625.048828125" xlink:href="#BitstreamVeraSans-Roman-6f"/>
      <use x="686.23046875" xlink:href="#BitstreamVeraSans-Roman-64"/>
      <use x="749.70703125" xlink:href="#BitstreamVeraSans-Roman-65"/>
      <use x="811.23046875" xlink:href="#BitstreamVeraSans-Roman-73"/>
     </g>
    </g>
   </g>
   <g id="matplotlib.axis_2">
    <g id="ytick_1">
     <g id="line2d_25">
      <defs>
       <path d="
M0 0
L4 0" id="me8a85f7bf6" style="stroke:#000000;stroke-linecap:butt;stroke-width:0.5;"/>
      </defs>
      <g>
       <use style="stroke:#000000;stroke-linecap:butt;stroke-width:0.5;" x="144.0" xlink:href="#me8a85f7bf6" y="620.46"/>
      </g>
     </g>
     <g id="line2d_26">
      <defs>
       <path d="
M0 0
L-4 0" id="m1a32005dea" style="stroke:#000000;stroke-linecap:butt;stroke-width:0.5;"/>
      </defs>
      <g>
       <use style="stroke:#000000;stroke-linecap:butt;stroke-width:0.5;" x="1036.8" xlink:href="#m1a32005dea" y="620.46"/>
      </g>
     </g>
     <g id="text_10">
      <!-- 0 -->
      <g transform="translate(133.953125 624.8278125)scale(0.12 -0.12)">
       <use xlink:href="#BitstreamVeraSans-Roman-30"/>
      </g>
     </g>
    </g>
    <g id="ytick_2">
     <g id="line2d_27">
      <g>
       <use style="stroke:#000000;stroke-linecap:butt;stroke-width:0.5;" x="144.0" xlink:href="#me8a85f7bf6" y="510.156"/>
      </g>
     </g>
     <g id="line2d_28">
      <g>
       <use style="stroke:#000000;stroke-linecap:butt;stroke-width:0.5;" x="1036.8" xlink:href="#m1a32005dea" y="510.156"/>
      </g>
     </g>
     <g id="text_11">
      <!-- 5 -->
      <defs>
       <path d="
M10.7969 72.9062
L49.5156 72.9062
L49.5156 64.5938
L19.8281 64.5938
L19.8281 46.7344
Q21.9688 47.4688 24.1094 47.8281
Q26.2656 48.1875 28.4219 48.1875
Q40.625 48.1875 47.75 41.5
Q54.8906 34.8125 54.8906 23.3906
Q54.8906 11.625 47.5625 5.09375
Q40.2344 -1.42188 26.9062 -1.42188
Q22.3125 -1.42188 17.5469 -0.640625
Q12.7969 0.140625 7.71875 1.70312
L7.71875 11.625
Q12.1094 9.23438 16.7969 8.0625
Q21.4844 6.89062 26.7031 6.89062
Q35.1562 6.89062 40.0781 11.3281
Q45.0156 15.7656 45.0156 23.3906
Q45.0156 31 40.0781 35.4375
Q35.1562 39.8906 26.7031 39.8906
Q22.75 39.8906 18.8125 39.0156
Q14.8906 38.1406 10.7969 36.2812
z
" id="BitstreamVeraSans-Roman-35"/>
      </defs>
      <g transform="translate(134.339375 514.4450625)scale(0.12 -0.12)">
       <use xlink:href="#BitstreamVeraSans-Roman-35"/>
      </g>
     </g>
    </g>
    <g id="ytick_3">
     <g id="line2d_29">
      <g>
       <use style="stroke:#000000;stroke-linecap:butt;stroke-width:0.5;" x="144.0" xlink:href="#me8a85f7bf6" y="399.852"/>
      </g>
     </g>
     <g id="line2d_30">
      <g>
       <use style="stroke:#000000;stroke-linecap:butt;stroke-width:0.5;" x="1036.8" xlink:href="#m1a32005dea" y="399.852"/>
      </g>
     </g>
     <g id="text_12">
      <!-- 10 -->
      <g transform="translate(126.845 404.2198125)scale(0.12 -0.12)">
       <use xlink:href="#BitstreamVeraSans-Roman-31"/>
       <use x="63.623046875" xlink:href="#BitstreamVeraSans-Roman-30"/>
      </g>
     </g>
    </g>
    <g id="ytick_4">
     <g id="line2d_31">
      <g>
       <use style="stroke:#000000;stroke-linecap:butt;stroke-width:0.5;" x="144.0" xlink:href="#me8a85f7bf6" y="289.548"/>
      </g>
     </g>
     <g id="line2d_32">
      <g>
       <use style="stroke:#000000;stroke-linecap:butt;stroke-width:0.5;" x="1036.8" xlink:href="#m1a32005dea" y="289.548"/>
      </g>
     </g>
     <g id="text_13">
      <!-- 15 -->
      <g transform="translate(127.09625 293.8370625)scale(0.12 -0.12)">
       <use xlink:href="#BitstreamVeraSans-Roman-31"/>
       <use x="63.623046875" xlink:href="#BitstreamVeraSans-Roman-35"/>
      </g>
     </g>
    </g>
    <g id="ytick_5">
     <g id="line2d_33">
      <g>
       <use style="stroke:#000000;stroke-linecap:butt;stroke-width:0.5;" x="144.0" xlink:href="#me8a85f7bf6" y="179.244"/>
      </g>
     </g>
     <g id="line2d_34">
      <g>
       <use style="stroke:#000000;stroke-linecap:butt;stroke-width:0.5;" x="1036.8" xlink:href="#m1a32005dea" y="179.244"/>
      </g>
     </g>
     <g id="text_14">
      <!-- 20 -->
      <g transform="translate(126.40625 183.6118125)scale(0.12 -0.12)">
       <use xlink:href="#BitstreamVeraSans-Roman-32"/>
       <use x="63.623046875" xlink:href="#BitstreamVeraSans-Roman-30"/>
      </g>
     </g>
    </g>
    <g id="ytick_6">
     <g id="line2d_35">
      <g>
       <use style="stroke:#000000;stroke-linecap:butt;stroke-width:0.5;" x="144.0" xlink:href="#me8a85f7bf6" y="68.94"/>
      </g>
     </g>
     <g id="line2d_36">
      <g>
       <use style="stroke:#000000;stroke-linecap:butt;stroke-width:0.5;" x="1036.8" xlink:href="#m1a32005dea" y="68.94"/>
      </g>
     </g>
     <g id="text_15">
      <!-- 25 -->
      <g transform="translate(126.6575 73.3078125)scale(0.12 -0.12)">
       <use xlink:href="#BitstreamVeraSans-Roman-32"/>
       <use x="63.623046875" xlink:href="#BitstreamVeraSans-Roman-35"/>
      </g>
     </g>
    </g>
    <g id="text_16">
     <!-- Route stretch -->
     <defs>
      <path d="
M44.3906 34.1875
Q47.5625 33.1094 50.5625 29.5938
Q53.5625 26.0781 56.5938 19.9219
L66.6094 0
L56 0
L46.6875 18.7031
Q43.0625 26.0312 39.6719 28.4219
Q36.2812 30.8125 30.4219 30.8125
L19.6719 30.8125
L19.6719 0
L9.8125 0
L9.8125 72.9062
L32.0781 72.9062
Q44.5781 72.9062 50.7344 67.6719
Q56.8906 62.4531 56.8906 51.9062
Q56.8906 45.0156 53.6875 40.4688
Q50.4844 35.9375 44.3906 34.1875
M19.6719 64.7969
L19.6719 38.9219
L32.0781 38.9219
Q39.2031 38.9219 42.8438 42.2188
Q46.4844 45.5156 46.4844 51.9062
Q46.4844 58.2969 42.8438 61.5469
Q39.2031 64.7969 32.0781 64.7969
z
" id="BitstreamVeraSans-Roman-52"/>
      <path d="
M18.3125 70.2188
L18.3125 54.6875
L36.8125 54.6875
L36.8125 47.7031
L18.3125 47.7031
L18.3125 18.0156
Q18.3125 11.3281 20.1406 9.42188
Q21.9688 7.51562 27.5938 7.51562
L36.8125 7.51562
L36.8125 0
L27.5938 0
Q17.1875 0 13.2344 3.875
Q9.28125 7.76562 9.28125 18.0156
L9.28125 47.7031
L2.6875 47.7031
L2.6875 54.6875
L9.28125 54.6875
L9.28125 70.2188
z
" id="BitstreamVeraSans-Roman-74"/>
      <path d="
M48.7812 52.5938
L48.7812 44.1875
Q44.9688 46.2969 41.1406 47.3438
Q37.3125 48.3906 33.4062 48.3906
Q24.6562 48.3906 19.8125 42.8438
Q14.9844 37.3125 14.9844 27.2969
Q14.9844 17.2812 19.8125 11.7344
Q24.6562 6.20312 33.4062 6.20312
Q37.3125 6.20312 41.1406 7.25
Q44.9688 8.29688 48.7812 10.4062
L48.7812 2.09375
Q45.0156 0.34375 40.9844 -0.53125
Q36.9688 -1.42188 32.4219 -1.42188
Q20.0625 -1.42188 12.7812 6.34375
Q5.51562 14.1094 5.51562 27.2969
Q5.51562 40.6719 12.8594 48.3281
Q20.2188 56 33.0156 56
Q37.1562 56 41.1094 55.1406
Q45.0625 54.2969 48.7812 52.5938" id="BitstreamVeraSans-Roman-63"/>
      <path d="
M54.8906 33.0156
L54.8906 0
L45.9062 0
L45.9062 32.7188
Q45.9062 40.4844 42.875 44.3281
Q39.8438 48.1875 33.7969 48.1875
Q26.5156 48.1875 22.3125 43.5469
Q18.1094 38.9219 18.1094 30.9062
L18.1094 0
L9.07812 0
L9.07812 75.9844
L18.1094 75.9844
L18.1094 46.1875
Q21.3438 51.125 25.7031 53.5625
Q30.0781 56 35.7969 56
Q45.2188 56 50.0469 50.1719
Q54.8906 44.3438 54.8906 33.0156" id="BitstreamVeraSans-Roman-68"/>
     </defs>
     <g transform="translate(121.40625 384.2990625)rotate(-90.0)scale(0.12 -0.12)">
      <use xlink:href="#BitstreamVeraSans-Roman-52"/>
      <use x="64.982421875" xlink:href="#BitstreamVeraSans-Roman-6f"/>
      <use x="126.1640625" xlink:href="#BitstreamVeraSans-Roman-75"/>
      <use x="189.54296875" xlink:href="#BitstreamVeraSans-Roman-74"/>
      <use x="228.751953125" xlink:href="#BitstreamVeraSans-Roman-65"/>
      <use x="290.275390625" xlink:href="#BitstreamVeraSans-Roman-20"/>
      <use x="322.0625" xlink:href="#BitstreamVeraSans-Roman-73"/>
      <use x="374.162109375" xlink:href="#BitstreamVeraSans-Roman-74"/>
      <use x="413.37109375" xlink:href="#BitstreamVeraSans-Roman-72"/>
      <use x="452.234375" xlink:href="#BitstreamVeraSans-Roman-65"/>
      <use x="513.7578125" xlink:href="#BitstreamVeraSans-Roman-74"/>
      <use x="552.966796875" xlink:href="#BitstreamVeraSans-Roman-63"/>
      <use x="607.947265625" xlink:href="#BitstreamVeraSans-Roman-68"/>
     </g>
    </g>
   </g>
   <g id="patch_10">
    <path d="
M144 68.94
L1036.8 68.94" style="fill:none;stroke:#000000;"/>
   </g>
   <g id="patch_11">
    <path d="
M1036.8 620.46
L1036.8 68.94" style="fill:none;stroke:#000000;"/>
   </g>
   <g id="patch_12">
    <path d="
M144 620.46
L1036.8 620.46" style="fill:none;stroke:#000000;"/>
   </g>
   <g id="patch_13">
    <path d="
M144 620.46
L144 68.94" style="fill:none;stroke:#000000;"/>
   </g>
   <g id="text_17">
    <!-- Route stretch for different number of random remotes in Watts-Strogatz graphs. -->
    <defs>
     <path d="
M5.51562 54.6875
L48.1875 54.6875
L48.1875 46.4844
L14.4062 7.17188
L48.1875 7.17188
L48.1875 0
L4.29688 0
L4.29688 8.20312
L38.0938 47.5156
L5.51562 47.5156
z
" id="BitstreamVeraSans-Roman-7a"/>
     <path d="
M53.5156 70.5156
L53.5156 60.8906
Q47.9062 63.5781 42.9219 64.8906
Q37.9375 66.2188 33.2969 66.2188
Q25.25 66.2188 20.875 63.0938
Q16.5 59.9688 16.5 54.2031
Q16.5 49.3594 19.4062 46.8906
Q22.3125 44.4375 30.4219 42.9219
L36.375 41.7031
Q47.4062 39.5938 52.6562 34.2969
Q57.9062 29 57.9062 20.125
Q57.9062 9.51562 50.7969 4.04688
Q43.7031 -1.42188 29.9844 -1.42188
Q24.8125 -1.42188 18.9688 -0.25
Q13.1406 0.921875 6.89062 3.21875
L6.89062 13.375
Q12.8906 10.0156 18.6562 8.29688
Q24.4219 6.59375 29.9844 6.59375
Q38.4219 6.59375 43.0156 9.90625
Q47.6094 13.2344 47.6094 19.3906
Q47.6094 24.75 44.3125 27.7812
Q41.0156 30.8125 33.5 32.3281
L27.4844 33.5
Q16.4531 35.6875 11.5156 40.375
Q6.59375 45.0625 6.59375 53.4219
Q6.59375 63.0938 13.4062 68.6562
Q20.2188 74.2188 32.1719 74.2188
Q37.3125 74.2188 42.625 73.2812
Q47.9531 72.3594 53.5156 70.5156" id="BitstreamVeraSans-Roman-53"/>
     <path d="
M9.42188 54.6875
L18.4062 54.6875
L18.4062 0
L9.42188 0
z

M9.42188 75.9844
L18.4062 75.9844
L18.4062 64.5938
L9.42188 64.5938
z
" id="BitstreamVeraSans-Roman-69"/>
     <path d="
M4.89062 31.3906
L31.2031 31.3906
L31.2031 23.3906
L4.89062 23.3906
z
" id="BitstreamVeraSans-Roman-2d"/>
     <path d="
M3.32812 72.9062
L13.2812 72.9062
L28.6094 11.2812
L43.8906 72.9062
L54.9844 72.9062
L70.3125 11.2812
L85.5938 72.9062
L95.6094 72.9062
L77.2969 0
L64.8906 0
L49.5156 63.2812
L33.9844 0
L21.5781 0
z
" id="BitstreamVeraSans-Roman-57"/>
     <path d="
M10.6875 12.4062
L21 12.4062
L21 0
L10.6875 0
z
" id="BitstreamVeraSans-Roman-2e"/>
     <path d="
M45.4062 27.9844
Q45.4062 37.75 41.375 43.1094
Q37.3594 48.4844 30.0781 48.4844
Q22.8594 48.4844 18.8281 43.1094
Q14.7969 37.75 14.7969 27.9844
Q14.7969 18.2656 18.8281 12.8906
Q22.8594 7.51562 30.0781 7.51562
Q37.3594 7.51562 41.375 12.8906
Q45.4062 18.2656 45.4062 27.9844
M54.3906 6.78125
Q54.3906 -7.17188 48.1875 -13.9844
Q42 -20.7969 29.2031 -20.7969
Q24.4688 -20.7969 20.2656 -20.0938
Q16.0625 -19.3906 12.1094 -17.9219
L12.1094 -9.1875
Q16.0625 -11.3281 19.9219 -12.3438
Q23.7812 -13.375 27.7812 -13.375
Q36.625 -13.375 41.0156 -8.76562
Q45.4062 -4.15625 45.4062 5.17188
L45.4062 9.625
Q42.625 4.78125 38.2812 2.39062
Q33.9375 0 27.875 0
Q17.8281 0 11.6719 7.65625
Q5.51562 15.3281 5.51562 27.9844
Q5.51562 40.6719 11.6719 48.3281
Q17.8281 56 27.875 56
Q33.9375 56 38.2812 53.6094
Q42.625 51.2188 45.4062 46.3906
L45.4062 54.6875
L54.3906 54.6875
z
" id="BitstreamVeraSans-Roman-67"/>
     <path d="
M34.2812 27.4844
Q23.3906 27.4844 19.1875 25
Q14.9844 22.5156 14.9844 16.5
Q14.9844 11.7188 18.1406 8.90625
Q21.2969 6.10938 26.7031 6.10938
Q34.1875 6.10938 38.7031 11.4062
Q43.2188 16.7031 43.2188 25.4844
L43.2188 27.4844
z

M52.2031 31.2031
L52.2031 0
L43.2188 0
L43.2188 8.29688
Q40.1406 3.32812 35.5469 0.953125
Q30.9531 -1.42188 24.3125 -1.42188
Q15.9219 -1.42188 10.9531 3.29688
Q6 8.01562 6 15.9219
Q6 25.1406 12.1719 29.8281
Q18.3594 34.5156 30.6094 34.5156
L43.2188 34.5156
L43.2188 35.4062
Q43.2188 41.6094 39.1406 45
Q35.0625 48.3906 27.6875 48.3906
Q23 48.3906 18.5469 47.2656
Q14.1094 46.1406 10.0156 43.8906
L10.0156 52.2031
Q14.9375 54.1094 19.5781 55.0469
Q24.2188 56 28.6094 56
Q40.4844 56 46.3438 49.8438
Q52.2031 43.7031 52.2031 31.2031" id="BitstreamVeraSans-Roman-61"/>
     <path d="
M18.1094 8.20312
L18.1094 -20.7969
L9.07812 -20.7969
L9.07812 54.6875
L18.1094 54.6875
L18.1094 46.3906
Q20.9531 51.2656 25.2656 53.625
Q29.5938 56 35.5938 56
Q45.5625 56 51.7812 48.0938
Q58.0156 40.1875 58.0156 27.2969
Q58.0156 14.4062 51.7812 6.48438
Q45.5625 -1.42188 35.5938 -1.42188
Q29.5938 -1.42188 25.2656 0.953125
Q20.9531 3.32812 18.1094 8.20312
M48.6875 27.2969
Q48.6875 37.2031 44.6094 42.8438
Q40.5312 48.4844 33.4062 48.4844
Q26.2656 48.4844 22.1875 42.8438
Q18.1094 37.2031 18.1094 27.2969
Q18.1094 17.3906 22.1875 11.75
Q26.2656 6.10938 33.4062 6.10938
Q40.5312 6.10938 44.6094 11.75
Q48.6875 17.3906 48.6875 27.2969" id="BitstreamVeraSans-Roman-70"/>
    </defs>
    <g transform="translate(302.121 47.2162)scale(0.144 -0.144)">
     <use xlink:href="#BitstreamVeraSans-Roman-52"/>
     <use x="64.982421875" xlink:href="#BitstreamVeraSans-Roman-6f"/>
     <use x="126.1640625" xlink:href="#BitstreamVeraSans-Roman-75"/>
     <use x="189.54296875" xlink:href="#BitstreamVeraSans-Roman-74"/>
     <use x="228.751953125" xlink:href="#BitstreamVeraSans-Roman-65"/>
     <use x="290.275390625" xlink:href="#BitstreamVeraSans-Roman-20"/>
     <use x="322.0625" xlink:href="#BitstreamVeraSans-Roman-73"/>
     <use x="374.162109375" xlink:href="#BitstreamVeraSans-Roman-74"/>
     <use x="413.37109375" xlink:href="#BitstreamVeraSans-Roman-72"/>
     <use x="452.234375" xlink:href="#BitstreamVeraSans-Roman-65"/>
     <use x="513.7578125" xlink:href="#BitstreamVeraSans-Roman-74"/>
     <use x="552.966796875" xlink:href="#BitstreamVeraSans-Roman-63"/>
     <use x="607.947265625" xlink:href="#BitstreamVeraSans-Roman-68"/>
     <use x="671.326171875" xlink:href="#BitstreamVeraSans-Roman-20"/>
     <use x="703.11328125" xlink:href="#BitstreamVeraSans-Roman-66"/>
     <use x="738.318359375" xlink:href="#BitstreamVeraSans-Roman-6f"/>
     <use x="799.5" xlink:href="#BitstreamVeraSans-Roman-72"/>
     <use x="840.61328125" xlink:href="#BitstreamVeraSans-Roman-20"/>
     <use x="872.400390625" xlink:href="#BitstreamVeraSans-Roman-64"/>
     <use x="935.876953125" xlink:href="#BitstreamVeraSans-Roman-69"/>
     <use x="963.66015625" xlink:href="#BitstreamVeraSans-Roman-66"/>
     <use x="998.865234375" xlink:href="#BitstreamVeraSans-Roman-66"/>
     <use x="1034.0703125" xlink:href="#BitstreamVeraSans-Roman-65"/>
     <use x="1095.59375" xlink:href="#BitstreamVeraSans-Roman-72"/>
     <use x="1134.45703125" xlink:href="#BitstreamVeraSans-Roman-65"/>
     <use x="1195.98046875" xlink:href="#BitstreamVeraSans-Roman-6e"/>
     <use x="1259.359375" xlink:href="#BitstreamVeraSans-Roman-74"/>
     <use x="1298.568359375" xlink:href="#BitstreamVeraSans-Roman-20"/>
     <use x="1330.35546875" xlink:href="#BitstreamVeraSans-Roman-6e"/>
     <use x="1393.734375" xlink:href="#BitstreamVeraSans-Roman-75"/>
     <use x="1457.11328125" xlink:href="#BitstreamVeraSans-Roman-6d"/>
     <use x="1554.525390625" xlink:href="#BitstreamVeraSans-Roman-62"/>
     <use x="1618.001953125" xlink:href="#BitstreamVeraSans-Roman-65"/>
     <use x="1679.525390625" xlink:href="#BitstreamVeraSans-Roman-72"/>
     <use x="1720.638671875" xlink:href="#BitstreamVeraSans-Roman-20"/>
     <use x="1752.42578125" xlink:href="#BitstreamVeraSans-Roman-6f"/>
     <use x="1813.607421875" xlink:href="#BitstreamVeraSans-Roman-66"/>
     <use x="1848.8125" xlink:href="#BitstreamVeraSans-Roman-20"/>
     <use x="1880.599609375" xlink:href="#BitstreamVeraSans-Roman-72"/>
     <use x="1921.712890625" xlink:href="#BitstreamVeraSans-Roman-61"/>
     <use x="1982.9921875" xlink:href="#BitstreamVeraSans-Roman-6e"/>
     <use x="2046.37109375" xlink:href="#BitstreamVeraSans-Roman-64"/>
     <use x="2109.84765625" xlink:href="#BitstreamVeraSans-Roman-6f"/>
     <use x="2171.029296875" xlink:href="#BitstreamVeraSans-Roman-6d"/>
     <use x="2268.44140625" xlink:href="#BitstreamVeraSans-Roman-20"/>
     <use x="2300.228515625" xlink:href="#BitstreamVeraSans-Roman-72"/>
     <use x="2339.091796875" xlink:href="#BitstreamVeraSans-Roman-65"/>
     <use x="2400.615234375" xlink:href="#BitstreamVeraSans-Roman-6d"/>
     <use x="2498.02734375" xlink:href="#BitstreamVeraSans-Roman-6f"/>
     <use x="2559.208984375" xlink:href="#BitstreamVeraSans-Roman-74"/>
     <use x="2598.41796875" xlink:href="#BitstreamVeraSans-Roman-65"/>
     <use x="2659.94140625" xlink:href="#BitstreamVeraSans-Roman-73"/>
     <use x="2712.041015625" xlink:href="#BitstreamVeraSans-Roman-20"/>
     <use x="2743.828125" xlink:href="#BitstreamVeraSans-Roman-69"/>
     <use x="2771.611328125" xlink:href="#BitstreamVeraSans-Roman-6e"/>
     <use x="2834.990234375" xlink:href="#BitstreamVeraSans-Roman-20"/>
     <use x="2866.77734375" xlink:href="#BitstreamVeraSans-Roman-57"/>
     <use x="2959.279296875" xlink:href="#BitstreamVeraSans-Roman-61"/>
     <use x="3020.55859375" xlink:href="#BitstreamVeraSans-Roman-74"/>
     <use x="3059.767578125" xlink:href="#BitstreamVeraSans-Roman-74"/>
     <use x="3098.9765625" xlink:href="#BitstreamVeraSans-Roman-73"/>
     <use x="3151.076171875" xlink:href="#BitstreamVeraSans-Roman-2d"/>
     <use x="3187.16015625" xlink:href="#BitstreamVeraSans-Roman-53"/>
     <use x="3250.63671875" xlink:href="#BitstreamVeraSans-Roman-74"/>
     <use x="3289.845703125" xlink:href="#BitstreamVeraSans-Roman-72"/>
     <use x="3328.708984375" xlink:href="#BitstreamVeraSans-Roman-6f"/>
     <use x="3389.890625" xlink:href="#BitstreamVeraSans-Roman-67"/>
     <use x="3453.3671875" xlink:href="#BitstreamVeraSans-Roman-61"/>
     <use x="3514.646484375" xlink:href="#BitstreamVeraSans-Roman-74"/>
     <use x="3553.85546875" xlink:href="#BitstreamVeraSans-Roman-7a"/>
     <use x="3606.345703125" xlink:href="#BitstreamVeraSans-Roman-20"/>
     <use x="3638.1328125" xlink:href="#BitstreamVeraSans-Roman-67"/>
     <use x="3701.609375" xlink:href="#BitstreamVeraSans-Roman-72"/>
     <use x="3742.72265625" xlink:href="#BitstreamVeraSans-Roman-61"/>
     <use x="3804.001953125" xlink:href="#BitstreamVeraSans-Roman-70"/>
     <use x="3867.478515625" xlink:href="#BitstreamVeraSans-Roman-68"/>
     <use x="3930.857421875" xlink:href="#BitstreamVeraSans-Roman-73"/>
     <use x="3982.95703125" xlink:href="#BitstreamVeraSans-Roman-2e"/>
    </g>
    <!-- 3 neighbors. -->
    <defs>
     <path d="
M40.5781 39.3125
Q47.6562 37.7969 51.625 33
Q55.6094 28.2188 55.6094 21.1875
Q55.6094 10.4062 48.1875 4.48438
Q40.7656 -1.42188 27.0938 -1.42188
Q22.5156 -1.42188 17.6562 -0.515625
Q12.7969 0.390625 7.625 2.20312
L7.625 11.7188
Q11.7188 9.32812 16.5938 8.10938
Q21.4844 6.89062 26.8125 6.89062
Q36.0781 6.89062 40.9375 10.5469
Q45.7969 14.2031 45.7969 21.1875
Q45.7969 27.6406 41.2812 31.2656
Q36.7656 34.9062 28.7188 34.9062
L20.2188 34.9062
L20.2188 43.0156
L29.1094 43.0156
Q36.375 43.0156 40.2344 45.9219
Q44.0938 48.8281 44.0938 54.2969
Q44.0938 59.9062 40.1094 62.9062
Q36.1406 65.9219 28.7188 65.9219
Q24.6562 65.9219 20.0156 65.0312
Q15.375 64.1562 9.8125 62.3125
L9.8125 71.0938
Q15.4375 72.6562 20.3438 73.4375
Q25.25 74.2188 29.5938 74.2188
Q40.8281 74.2188 47.3594 69.1094
Q53.9062 64.0156 53.9062 55.3281
Q53.9062 49.2656 50.4375 45.0938
Q46.9688 40.9219 40.5781 39.3125" id="BitstreamVeraSans-Roman-33"/>
    </defs>
    <g transform="translate(546.204375 63.94)scale(0.144 -0.144)">
     <use xlink:href="#BitstreamVeraSans-Roman-33"/>
     <use x="63.623046875" xlink:href="#BitstreamVeraSans-Roman-20"/>
     <use x="95.41015625" xlink:href="#BitstreamVeraSans-Roman-6e"/>
     <use x="158.7890625" xlink:href="#BitstreamVeraSans-Roman-65"/>
     <use x="220.3125" xlink:href="#BitstreamVeraSans-Roman-69"/>
     <use x="248.095703125" xlink:href="#BitstreamVeraSans-Roman-67"/>
     <use x="311.572265625" xlink:href="#BitstreamVeraSans-Roman-68"/>
     <use x="374.951171875" xlink:href="#BitstreamVeraSans-Roman-62"/>
     <use x="438.427734375" xlink:href="#BitstreamVeraSans-Roman-6f"/>
     <use x="499.609375" xlink:href="#BitstreamVeraSans-Roman-72"/>
     <use x="540.72265625" xlink:href="#BitstreamVeraSans-Roman-73"/>
     <use x="592.822265625" xlink:href="#BitstreamVeraSans-Roman-2e"/>
    </g>
   </g>
   <g id="legend_1">
    <g id="patch_14">
     <path d="
M945.218 246.762
L1029.6 246.762
L1029.6 76.14
L945.218 76.14
L945.218 246.762
z
" style="fill:#ffffff;stroke:#000000;"/>
    </g>
    <g id="line2d_37">
     <path d="
M955.298 87.8017
L975.458 87.8017" style="fill:none;stroke:#000000;stroke-width:3;"/>
    </g>
    <g id="line2d_38"/>
    <g id="text_18">
     <!-- ln(N) -->
     <defs>
      <path d="
M8.01562 75.875
L15.8281 75.875
Q23.1406 64.3594 26.7812 53.3125
Q30.4219 42.2812 30.4219 31.3906
Q30.4219 20.4531 26.7812 9.375
Q23.1406 -1.70312 15.8281 -13.1875
L8.01562 -13.1875
Q14.5 -2 17.7031 9.0625
Q20.9062 20.125 20.9062 31.3906
Q20.9062 42.6719 17.7031 53.6562
Q14.5 64.6562 8.01562 75.875" id="BitstreamVeraSans-Roman-29"/>
      <path d="
M31 75.875
Q24.4688 64.6562 21.2812 53.6562
Q18.1094 42.6719 18.1094 31.3906
Q18.1094 20.125 21.3125 9.0625
Q24.5156 -2 31 -13.1875
L23.1875 -13.1875
Q15.875 -1.70312 12.2344 9.375
Q8.59375 20.4531 8.59375 31.3906
Q8.59375 42.2812 12.2031 53.3125
Q15.8281 64.3594 23.1875 75.875
z
" id="BitstreamVeraSans-Roman-28"/>
      <path d="
M9.42188 75.9844
L18.4062 75.9844
L18.4062 0
L9.42188 0
z
" id="BitstreamVeraSans-Roman-6c"/>
     </defs>
     <g transform="translate(991.29825 92.84175)scale(0.144 -0.144)">
      <use xlink:href="#BitstreamVeraSans-Roman-6c"/>
      <use x="27.783203125" xlink:href="#BitstreamVeraSans-Roman-6e"/>
      <use x="91.162109375" xlink:href="#BitstreamVeraSans-Roman-28"/>
      <use x="130.17578125" xlink:href="#BitstreamVeraSans-Roman-4e"/>
      <use x="204.98046875" xlink:href="#BitstreamVeraSans-Roman-29"/>
     </g>
    </g>
    <g id="line2d_39">
     <path d="
M955.298 108.938
L975.458 108.938" style="fill:none;stroke:#0000ff;"/>
    </g>
    <g id="line2d_40">
     <g>
      <use style="fill:#0000ff;stroke:#0000ff;stroke-linecap:butt;stroke-width:0.5;" x="955.29825" xlink:href="#m60516ac18e" y="108.93825"/>
      <use style="fill:#0000ff;stroke:#0000ff;stroke-linecap:butt;stroke-width:0.5;" x="975.45825" xlink:href="#m60516ac18e" y="108.93825"/>
     </g>
    </g>
    <g id="text_19">
     <!-- 2 -->
     <g transform="translate(991.29825 113.97825)scale(0.144 -0.144)">
      <use xlink:href="#BitstreamVeraSans-Roman-32"/>
     </g>
    </g>
    <g id="line2d_41">
     <path d="
M955.298 130.075
L975.458 130.075" style="fill:none;stroke:#008000;"/>
    </g>
    <g id="line2d_42">
     <g>
      <use style="fill:#008000;stroke:#008000;stroke-linecap:butt;stroke-width:0.5;" x="955.29825" xlink:href="#m78e0c95df6" y="130.07475"/>
      <use style="fill:#008000;stroke:#008000;stroke-linecap:butt;stroke-width:0.5;" x="975.45825" xlink:href="#m78e0c95df6" y="130.07475"/>
     </g>
    </g>
    <g id="text_20">
     <!-- 5 -->
     <g transform="translate(991.29825 135.11475)scale(0.144 -0.144)">
      <use xlink:href="#BitstreamVeraSans-Roman-35"/>
     </g>
    </g>
    <g id="line2d_43">
     <path d="
M955.298 151.211
L975.458 151.211" style="fill:none;stroke:#ff0000;"/>
    </g>
    <g id="line2d_44">
     <g>
      <use style="fill:#ff0000;stroke:#ff0000;stroke-linecap:butt;stroke-width:0.5;" x="955.29825" xlink:href="#mc0eafcda7b" y="151.21125"/>
      <use style="fill:#ff0000;stroke:#ff0000;stroke-linecap:butt;stroke-width:0.5;" x="975.45825" xlink:href="#mc0eafcda7b" y="151.21125"/>
     </g>
    </g>
    <g id="text_21">
     <!-- 10 -->
     <g transform="translate(991.29825 156.25125)scale(0.144 -0.144)">
      <use xlink:href="#BitstreamVeraSans-Roman-31"/>
      <use x="63.623046875" xlink:href="#BitstreamVeraSans-Roman-30"/>
     </g>
    </g>
    <g id="line2d_45">
     <path d="
M955.298 172.348
L975.458 172.348" style="fill:none;stroke:#00bfbf;"/>
    </g>
    <g id="line2d_46">
     <g>
      <use style="fill:#00bfbf;stroke:#00bfbf;stroke-linecap:butt;stroke-width:0.5;" x="955.29825" xlink:href="#m90d600f257" y="172.34775"/>
      <use style="fill:#00bfbf;stroke:#00bfbf;stroke-linecap:butt;stroke-width:0.5;" x="975.45825" xlink:href="#m90d600f257" y="172.34775"/>
     </g>
    </g>
    <g id="text_22">
     <!-- 15 -->
     <g transform="translate(991.29825 177.38775)scale(0.144 -0.144)">
      <use xlink:href="#BitstreamVeraSans-Roman-31"/>
      <use x="63.623046875" xlink:href="#BitstreamVeraSans-Roman-35"/>
     </g>
    </g>
    <g id="line2d_47">
     <path d="
M955.298 193.484
L975.458 193.484" style="fill:none;stroke:#bf00bf;"/>
    </g>
    <g id="line2d_48">
     <g>
      <use style="fill:#bf00bf;stroke:#bf00bf;stroke-linecap:butt;stroke-width:0.5;" x="955.29825" xlink:href="#mc0debf2262" y="193.48425"/>
      <use style="fill:#bf00bf;stroke:#bf00bf;stroke-linecap:butt;stroke-width:0.5;" x="975.45825" xlink:href="#mc0debf2262" y="193.48425"/>
     </g>
    </g>
    <g id="text_23">
     <!-- 20 -->
     <g transform="translate(991.29825 198.52425)scale(0.144 -0.144)">
      <use xlink:href="#BitstreamVeraSans-Roman-32"/>
      <use x="63.623046875" xlink:href="#BitstreamVeraSans-Roman-30"/>
     </g>
    </g>
    <g id="line2d_49">
     <path d="
M955.298 214.621
L975.458 214.621" style="fill:none;stroke:#bfbf00;"/>
    </g>
    <g id="line2d_50">
     <g>
      <use style="fill:#bfbf00;stroke:#bfbf00;stroke-linecap:butt;stroke-width:0.5;" x="955.29825" xlink:href="#m3ee41cdeb1" y="214.62075"/>
      <use style="fill:#bfbf00;stroke:#bfbf00;stroke-linecap:butt;stroke-width:0.5;" x="975.45825" xlink:href="#m3ee41cdeb1" y="214.62075"/>
     </g>
    </g>
    <g id="text_24">
     <!-- 50 -->
     <g transform="translate(991.29825 219.66075)scale(0.144 -0.144)">
      <use xlink:href="#BitstreamVeraSans-Roman-35"/>
      <use x="63.623046875" xlink:href="#BitstreamVeraSans-Roman-30"/>
     </g>
    </g>
    <g id="line2d_51">
     <path d="
M955.298 235.757
L975.458 235.757" style="fill:none;stroke:#000000;"/>
    </g>
    <g id="line2d_52">
     <g>
      <use style="stroke:#000000;stroke-linecap:butt;stroke-width:0.5;" x="955.29825" xlink:href="#m37a92066f2" y="235.75725"/>
      <use style="stroke:#000000;stroke-linecap:butt;stroke-width:0.5;" x="975.45825" xlink:href="#m37a92066f2" y="235.75725"/>
     </g>
    </g>
    <g id="text_25">
     <!-- 100 -->
     <g transform="translate(991.29825 240.79725)scale(0.144 -0.144)">
      <use xlink:href="#BitstreamVeraSans-Roman-31"/>
      <use x="63.623046875" xlink:href="#BitstreamVeraSans-Roman-30"/>
      <use x="127.24609375" xlink:href="#BitstreamVeraSans-Roman-30"/>
     </g>
    </g>
   </g>
  </g>
 </g>
 <defs>
  <clipPath id="p839c0b4ab8">
   <rect height="551.52" width="892.8" x="144.0" y="68.94"/>
  </clipPath>
 </defs>
</svg>
